<mxfile host="app.diagrams.net" agent="Mozilla/5.0 (Macintosh; Intel Mac OS X 10_15_7) AppleWebKit/537.36 (KHTML, like Gecko) Chrome/137.0.0.0 Safari/537.36 Edg/137.0.0.0" version="27.1.5" pages="2">
  <diagram id="oCmQAV_-dvhQuT4Fr0Dw" name="Class">
    <mxGraphModel dx="2627" dy="563" grid="1" gridSize="10" guides="1" tooltips="1" connect="1" arrows="1" fold="1" page="1" pageScale="1" pageWidth="827" pageHeight="1169" math="0" shadow="0">
      <root>
        <mxCell id="0" />
        <mxCell id="1" parent="0" />
        <mxCell id="o5JYq8easLvBcQJmouKF-1" style="edgeStyle=orthogonalEdgeStyle;rounded=0;orthogonalLoop=1;jettySize=auto;html=1;entryX=0.5;entryY=0;entryDx=0;entryDy=0;" parent="1" source="o5JYq8easLvBcQJmouKF-4" target="o5JYq8easLvBcQJmouKF-9" edge="1">
          <mxGeometry relative="1" as="geometry" />
        </mxCell>
        <mxCell id="o5JYq8easLvBcQJmouKF-2" value="No" style="edgeLabel;html=1;align=center;verticalAlign=middle;resizable=0;points=[];fontSize=13;" parent="o5JYq8easLvBcQJmouKF-1" vertex="1" connectable="0">
          <mxGeometry x="-0.7327" y="-3" relative="1" as="geometry">
            <mxPoint y="1" as="offset" />
          </mxGeometry>
        </mxCell>
        <mxCell id="o5JYq8easLvBcQJmouKF-3" value="Yes" style="edgeStyle=orthogonalEdgeStyle;rounded=0;orthogonalLoop=1;jettySize=auto;html=1;entryX=0;entryY=0.5;entryDx=0;entryDy=0;fontSize=13;" parent="1" source="o5JYq8easLvBcQJmouKF-4" target="o5JYq8easLvBcQJmouKF-14" edge="1">
          <mxGeometry relative="1" as="geometry" />
        </mxCell>
        <mxCell id="o5JYq8easLvBcQJmouKF-4" value="&lt;div&gt;&lt;font style=&quot;font-size: 14px;&quot;&gt;Is FP&lt;/font&gt;&lt;/div&gt;&lt;div&gt;&lt;span style=&quot;background-color: transparent; color: light-dark(rgb(0, 0, 0), rgb(255, 255, 255));&quot;&gt;&lt;font style=&quot;font-size: 14px;&quot;&gt;mentioned in US?&lt;/font&gt;&lt;/span&gt;&lt;/div&gt;&lt;div&gt;&lt;span style=&quot;background-color: transparent; color: light-dark(rgb(0, 0, 0), rgb(255, 255, 255));&quot;&gt;&lt;font style=&quot;font-size: 13px;&quot;&gt;&lt;br&gt;&lt;/font&gt;&lt;/span&gt;&lt;/div&gt;" style="rhombus;whiteSpace=wrap;html=1;" parent="1" vertex="1">
          <mxGeometry x="-1455" y="40" width="130" height="130" as="geometry" />
        </mxCell>
        <mxCell id="o5JYq8easLvBcQJmouKF-5" style="edgeStyle=orthogonalEdgeStyle;rounded=0;orthogonalLoop=1;jettySize=auto;html=1;entryX=0.5;entryY=0;entryDx=0;entryDy=0;" parent="1" source="o5JYq8easLvBcQJmouKF-9" target="o5JYq8easLvBcQJmouKF-13" edge="1">
          <mxGeometry relative="1" as="geometry" />
        </mxCell>
        <mxCell id="o5JYq8easLvBcQJmouKF-6" value="No" style="edgeLabel;html=1;align=center;verticalAlign=middle;resizable=0;points=[];fontSize=13;" parent="o5JYq8easLvBcQJmouKF-5" vertex="1" connectable="0">
          <mxGeometry x="0.4992" y="-4" relative="1" as="geometry">
            <mxPoint as="offset" />
          </mxGeometry>
        </mxCell>
        <mxCell id="o5JYq8easLvBcQJmouKF-7" style="edgeStyle=orthogonalEdgeStyle;rounded=0;orthogonalLoop=1;jettySize=auto;html=1;entryX=0.5;entryY=1;entryDx=0;entryDy=0;" parent="1" source="o5JYq8easLvBcQJmouKF-9" target="o5JYq8easLvBcQJmouKF-14" edge="1">
          <mxGeometry relative="1" as="geometry" />
        </mxCell>
        <mxCell id="o5JYq8easLvBcQJmouKF-8" value="Yes" style="edgeLabel;html=1;align=center;verticalAlign=middle;resizable=0;points=[];fontSize=13;" parent="o5JYq8easLvBcQJmouKF-7" vertex="1" connectable="0">
          <mxGeometry x="-0.7734" y="-2" relative="1" as="geometry">
            <mxPoint as="offset" />
          </mxGeometry>
        </mxCell>
        <mxCell id="o5JYq8easLvBcQJmouKF-9" value="&lt;font style=&quot;font-size: 14px;&quot;&gt;Is FP a noun?&lt;/font&gt;" style="rhombus;whiteSpace=wrap;html=1;" parent="1" vertex="1">
          <mxGeometry x="-1455" y="200" width="130" height="130" as="geometry" />
        </mxCell>
        <mxCell id="o5JYq8easLvBcQJmouKF-10" style="edgeStyle=orthogonalEdgeStyle;rounded=0;orthogonalLoop=1;jettySize=auto;html=1;entryX=0.5;entryY=1;entryDx=0;entryDy=0;" parent="1" source="o5JYq8easLvBcQJmouKF-13" target="o5JYq8easLvBcQJmouKF-14" edge="1">
          <mxGeometry relative="1" as="geometry" />
        </mxCell>
        <mxCell id="o5JYq8easLvBcQJmouKF-11" value="No" style="edgeLabel;html=1;align=center;verticalAlign=middle;resizable=0;points=[];fontSize=13;" parent="o5JYq8easLvBcQJmouKF-10" vertex="1" connectable="0">
          <mxGeometry x="-0.8636" y="3" relative="1" as="geometry">
            <mxPoint as="offset" />
          </mxGeometry>
        </mxCell>
        <mxCell id="o5JYq8easLvBcQJmouKF-12" value="Yes" style="edgeStyle=orthogonalEdgeStyle;rounded=0;orthogonalLoop=1;jettySize=auto;html=1;entryX=0.5;entryY=0;entryDx=0;entryDy=0;fontSize=13;" parent="1" source="o5JYq8easLvBcQJmouKF-13" target="o5JYq8easLvBcQJmouKF-19" edge="1">
          <mxGeometry relative="1" as="geometry" />
        </mxCell>
        <mxCell id="o5JYq8easLvBcQJmouKF-13" value="&lt;font style=&quot;font-size: 14px;&quot;&gt;Is FP&amp;nbsp;&lt;/font&gt;&lt;div&gt;&lt;font style=&quot;font-size: 14px;&quot;&gt;mentiond&amp;nbsp;&lt;span style=&quot;background-color: transparent; color: light-dark(rgb(0, 0, 0), rgb(255, 255, 255));&quot;&gt;after&lt;/span&gt;&lt;/font&gt;&lt;div&gt;&lt;div&gt;&lt;font style=&quot;font-size: 14px;&quot;&gt;&quot;so that&quot;?&lt;/font&gt;&lt;/div&gt;&lt;/div&gt;&lt;/div&gt;" style="rhombus;whiteSpace=wrap;html=1;" parent="1" vertex="1">
          <mxGeometry x="-1455" y="355" width="130" height="130" as="geometry" />
        </mxCell>
        <mxCell id="o5JYq8easLvBcQJmouKF-14" value="&lt;font style=&quot;font-size: 14px;&quot;&gt;Irrelevant&lt;/font&gt;" style="rounded=0;whiteSpace=wrap;html=1;" parent="1" vertex="1">
          <mxGeometry x="-1245" y="75" width="120" height="60" as="geometry" />
        </mxCell>
        <mxCell id="o5JYq8easLvBcQJmouKF-15" style="edgeStyle=orthogonalEdgeStyle;rounded=0;orthogonalLoop=1;jettySize=auto;html=1;entryX=0;entryY=0.5;entryDx=0;entryDy=0;" parent="1" source="o5JYq8easLvBcQJmouKF-19" target="o5JYq8easLvBcQJmouKF-24" edge="1">
          <mxGeometry relative="1" as="geometry" />
        </mxCell>
        <mxCell id="o5JYq8easLvBcQJmouKF-16" value="No" style="edgeLabel;html=1;align=center;verticalAlign=middle;resizable=0;points=[];fontSize=13;" parent="o5JYq8easLvBcQJmouKF-15" vertex="1" connectable="0">
          <mxGeometry x="-0.3912" y="5" relative="1" as="geometry">
            <mxPoint x="8" y="10" as="offset" />
          </mxGeometry>
        </mxCell>
        <mxCell id="o5JYq8easLvBcQJmouKF-17" style="edgeStyle=orthogonalEdgeStyle;rounded=0;orthogonalLoop=1;jettySize=auto;html=1;entryX=0.5;entryY=0;entryDx=0;entryDy=0;" parent="1" source="o5JYq8easLvBcQJmouKF-19" target="o5JYq8easLvBcQJmouKF-30" edge="1">
          <mxGeometry relative="1" as="geometry" />
        </mxCell>
        <mxCell id="o5JYq8easLvBcQJmouKF-18" value="&lt;font style=&quot;font-size: 13px;&quot;&gt;Yes&lt;/font&gt;" style="edgeLabel;html=1;align=center;verticalAlign=middle;resizable=0;points=[];" parent="o5JYq8easLvBcQJmouKF-17" vertex="1" connectable="0">
          <mxGeometry x="0.3867" y="-1" relative="1" as="geometry">
            <mxPoint as="offset" />
          </mxGeometry>
        </mxCell>
        <mxCell id="o5JYq8easLvBcQJmouKF-19" value="&lt;span style=&quot;font-size: 14px;&quot;&gt;Is FP an actor&lt;/span&gt;&lt;div&gt;&lt;span style=&quot;font-size: 14px;&quot;&gt;entity, operation,&lt;/span&gt;&lt;/div&gt;&lt;div&gt;&lt;span style=&quot;font-size: 14px;&quot;&gt;or an attribute?&lt;/span&gt;&lt;/div&gt;" style="rhombus;whiteSpace=wrap;html=1;" parent="1" vertex="1">
          <mxGeometry x="-1460" y="510" width="140" height="140" as="geometry" />
        </mxCell>
        <mxCell id="o5JYq8easLvBcQJmouKF-20" style="edgeStyle=orthogonalEdgeStyle;rounded=0;orthogonalLoop=1;jettySize=auto;html=1;entryX=0.5;entryY=1;entryDx=0;entryDy=0;" parent="1" source="o5JYq8easLvBcQJmouKF-24" target="o5JYq8easLvBcQJmouKF-14" edge="1">
          <mxGeometry relative="1" as="geometry" />
        </mxCell>
        <mxCell id="o5JYq8easLvBcQJmouKF-21" value="No" style="edgeLabel;html=1;align=center;verticalAlign=middle;resizable=0;points=[];fontSize=13;" parent="o5JYq8easLvBcQJmouKF-20" vertex="1" connectable="0">
          <mxGeometry x="-0.8304" y="3" relative="1" as="geometry">
            <mxPoint as="offset" />
          </mxGeometry>
        </mxCell>
        <mxCell id="o5JYq8easLvBcQJmouKF-22" style="edgeStyle=orthogonalEdgeStyle;rounded=0;orthogonalLoop=1;jettySize=auto;html=1;entryX=0;entryY=0.5;entryDx=0;entryDy=0;" parent="1" source="o5JYq8easLvBcQJmouKF-24" target="o5JYq8easLvBcQJmouKF-25" edge="1">
          <mxGeometry relative="1" as="geometry" />
        </mxCell>
        <mxCell id="o5JYq8easLvBcQJmouKF-23" value="Yes" style="edgeLabel;html=1;align=center;verticalAlign=middle;resizable=0;points=[];fontSize=13;" parent="o5JYq8easLvBcQJmouKF-22" vertex="1" connectable="0">
          <mxGeometry x="-0.2092" y="2" relative="1" as="geometry">
            <mxPoint as="offset" />
          </mxGeometry>
        </mxCell>
        <mxCell id="o5JYq8easLvBcQJmouKF-24" value="&lt;span style=&quot;font-size: 14px;&quot;&gt;Is FP an&amp;nbsp;&lt;/span&gt;&lt;div&gt;&lt;span style=&quot;font-size: 14px;&quot;&gt;implementation&lt;/span&gt;&lt;/div&gt;&lt;div&gt;&lt;span style=&quot;font-size: 14px;&quot;&gt;detail?&lt;/span&gt;&lt;/div&gt;" style="rhombus;whiteSpace=wrap;html=1;" parent="1" vertex="1">
          <mxGeometry x="-1250" y="515" width="130" height="130" as="geometry" />
        </mxCell>
        <mxCell id="o5JYq8easLvBcQJmouKF-25" value="&lt;font style=&quot;font-size: 14px;&quot;&gt;Implementation&lt;/font&gt;" style="rounded=0;whiteSpace=wrap;html=1;" parent="1" vertex="1">
          <mxGeometry x="-1070" y="550" width="120" height="60" as="geometry" />
        </mxCell>
        <mxCell id="o5JYq8easLvBcQJmouKF-26" style="edgeStyle=orthogonalEdgeStyle;rounded=0;orthogonalLoop=1;jettySize=auto;html=1;entryX=0;entryY=0.5;entryDx=0;entryDy=0;" parent="1" source="o5JYq8easLvBcQJmouKF-30" target="o5JYq8easLvBcQJmouKF-31" edge="1">
          <mxGeometry relative="1" as="geometry" />
        </mxCell>
        <mxCell id="o5JYq8easLvBcQJmouKF-27" value="Yes" style="edgeLabel;html=1;align=center;verticalAlign=middle;resizable=0;points=[];fontSize=13;" parent="o5JYq8easLvBcQJmouKF-26" vertex="1" connectable="0">
          <mxGeometry x="-0.4577" y="3" relative="1" as="geometry">
            <mxPoint x="13" y="3" as="offset" />
          </mxGeometry>
        </mxCell>
        <mxCell id="o5JYq8easLvBcQJmouKF-28" style="edgeStyle=orthogonalEdgeStyle;rounded=0;orthogonalLoop=1;jettySize=auto;html=1;entryX=0.5;entryY=0;entryDx=0;entryDy=0;" parent="1" source="o5JYq8easLvBcQJmouKF-30" target="o5JYq8easLvBcQJmouKF-36" edge="1">
          <mxGeometry relative="1" as="geometry" />
        </mxCell>
        <mxCell id="o5JYq8easLvBcQJmouKF-29" value="&lt;font style=&quot;font-size: 13px;&quot;&gt;No&lt;/font&gt;" style="edgeLabel;html=1;align=center;verticalAlign=middle;resizable=0;points=[];" parent="o5JYq8easLvBcQJmouKF-28" vertex="1" connectable="0">
          <mxGeometry x="0.404" y="-1" relative="1" as="geometry">
            <mxPoint as="offset" />
          </mxGeometry>
        </mxCell>
        <mxCell id="o5JYq8easLvBcQJmouKF-30" value="&lt;font style=&quot;font-size: 14px;&quot;&gt;Is FP&amp;nbsp;&lt;/font&gt;&lt;div&gt;&lt;span style=&quot;font-size: 14px; background-color: transparent; color: light-dark(rgb(0, 0, 0), rgb(255, 255, 255));&quot;&gt;an operation?&lt;/span&gt;&lt;/div&gt;" style="rhombus;whiteSpace=wrap;html=1;" parent="1" vertex="1">
          <mxGeometry x="-1455" y="675" width="130" height="130" as="geometry" />
        </mxCell>
        <mxCell id="o5JYq8easLvBcQJmouKF-31" value="&lt;font style=&quot;font-size: 14px;&quot;&gt;Operation&lt;/font&gt;" style="rounded=0;whiteSpace=wrap;html=1;" parent="1" vertex="1">
          <mxGeometry x="-1245" y="710" width="120" height="60" as="geometry" />
        </mxCell>
        <mxCell id="o5JYq8easLvBcQJmouKF-32" style="edgeStyle=orthogonalEdgeStyle;rounded=0;orthogonalLoop=1;jettySize=auto;html=1;entryX=0;entryY=0.5;entryDx=0;entryDy=0;" parent="1" source="o5JYq8easLvBcQJmouKF-36" target="o5JYq8easLvBcQJmouKF-37" edge="1">
          <mxGeometry relative="1" as="geometry" />
        </mxCell>
        <mxCell id="o5JYq8easLvBcQJmouKF-33" value="&lt;font style=&quot;font-size: 13px;&quot;&gt;Yes&lt;/font&gt;" style="edgeLabel;html=1;align=center;verticalAlign=middle;resizable=0;points=[];" parent="o5JYq8easLvBcQJmouKF-32" vertex="1" connectable="0">
          <mxGeometry x="-0.3808" y="5" relative="1" as="geometry">
            <mxPoint as="offset" />
          </mxGeometry>
        </mxCell>
        <mxCell id="o5JYq8easLvBcQJmouKF-34" style="edgeStyle=orthogonalEdgeStyle;rounded=0;orthogonalLoop=1;jettySize=auto;html=1;entryX=0.5;entryY=0;entryDx=0;entryDy=0;" parent="1" source="o5JYq8easLvBcQJmouKF-36" target="o5JYq8easLvBcQJmouKF-42" edge="1">
          <mxGeometry relative="1" as="geometry" />
        </mxCell>
        <mxCell id="o5JYq8easLvBcQJmouKF-35" value="&lt;font style=&quot;font-size: 13px;&quot;&gt;No&lt;/font&gt;" style="edgeLabel;html=1;align=center;verticalAlign=middle;resizable=0;points=[];" parent="o5JYq8easLvBcQJmouKF-34" vertex="1" connectable="0">
          <mxGeometry x="0.4049" y="-6" relative="1" as="geometry">
            <mxPoint as="offset" />
          </mxGeometry>
        </mxCell>
        <mxCell id="o5JYq8easLvBcQJmouKF-36" value="&lt;font style=&quot;font-size: 14px;&quot;&gt;Is FP&amp;nbsp;&lt;/font&gt;&lt;div&gt;&lt;span style=&quot;font-size: 14px; background-color: transparent; color: light-dark(rgb(0, 0, 0), rgb(255, 255, 255));&quot;&gt;derived or&amp;nbsp;&lt;/span&gt;&lt;/div&gt;&lt;div&gt;&lt;span style=&quot;font-size: 14px; background-color: transparent; color: light-dark(rgb(0, 0, 0), rgb(255, 255, 255));&quot;&gt;redundant?&lt;/span&gt;&lt;/div&gt;" style="rhombus;whiteSpace=wrap;html=1;" parent="1" vertex="1">
          <mxGeometry x="-1455" y="830" width="130" height="130" as="geometry" />
        </mxCell>
        <mxCell id="o5JYq8easLvBcQJmouKF-37" value="&lt;span style=&quot;font-size: 14px;&quot;&gt;Redundant&lt;/span&gt;" style="rounded=0;whiteSpace=wrap;html=1;" parent="1" vertex="1">
          <mxGeometry x="-1245" y="865" width="120" height="60" as="geometry" />
        </mxCell>
        <mxCell id="o5JYq8easLvBcQJmouKF-38" style="edgeStyle=orthogonalEdgeStyle;rounded=0;orthogonalLoop=1;jettySize=auto;html=1;entryX=0;entryY=0.5;entryDx=0;entryDy=0;" parent="1" source="o5JYq8easLvBcQJmouKF-42" target="o5JYq8easLvBcQJmouKF-43" edge="1">
          <mxGeometry relative="1" as="geometry" />
        </mxCell>
        <mxCell id="o5JYq8easLvBcQJmouKF-39" value="&lt;font style=&quot;font-size: 13px;&quot;&gt;Yes&lt;/font&gt;" style="edgeLabel;html=1;align=center;verticalAlign=middle;resizable=0;points=[];" parent="o5JYq8easLvBcQJmouKF-38" vertex="1" connectable="0">
          <mxGeometry x="-0.3808" y="-3" relative="1" as="geometry">
            <mxPoint as="offset" />
          </mxGeometry>
        </mxCell>
        <mxCell id="o5JYq8easLvBcQJmouKF-40" style="edgeStyle=orthogonalEdgeStyle;rounded=0;orthogonalLoop=1;jettySize=auto;html=1;entryX=0.5;entryY=0;entryDx=0;entryDy=0;" parent="1" source="o5JYq8easLvBcQJmouKF-42" target="o5JYq8easLvBcQJmouKF-48" edge="1">
          <mxGeometry relative="1" as="geometry" />
        </mxCell>
        <mxCell id="o5JYq8easLvBcQJmouKF-41" value="&lt;font style=&quot;font-size: 13px;&quot;&gt;No&lt;/font&gt;" style="edgeLabel;html=1;align=center;verticalAlign=middle;resizable=0;points=[];" parent="o5JYq8easLvBcQJmouKF-40" vertex="1" connectable="0">
          <mxGeometry x="0.2284" y="-1" relative="1" as="geometry">
            <mxPoint x="19" y="-1" as="offset" />
          </mxGeometry>
        </mxCell>
        <mxCell id="o5JYq8easLvBcQJmouKF-42" value="&lt;font style=&quot;font-size: 14px;&quot;&gt;Is FP&amp;nbsp;&lt;/font&gt;&lt;div&gt;&lt;span style=&quot;font-size: 14px; background-color: transparent; color: light-dark(rgb(0, 0, 0), rgb(255, 255, 255));&quot;&gt;too generic?&lt;/span&gt;&lt;/div&gt;" style="rhombus;whiteSpace=wrap;html=1;" parent="1" vertex="1">
          <mxGeometry x="-1455" y="990" width="130" height="130" as="geometry" />
        </mxCell>
        <mxCell id="o5JYq8easLvBcQJmouKF-43" value="&lt;span style=&quot;font-size: 14px;&quot;&gt;Vague&lt;/span&gt;" style="rounded=0;whiteSpace=wrap;html=1;" parent="1" vertex="1">
          <mxGeometry x="-1245" y="1025" width="120" height="60" as="geometry" />
        </mxCell>
        <mxCell id="o5JYq8easLvBcQJmouKF-44" style="edgeStyle=orthogonalEdgeStyle;rounded=0;orthogonalLoop=1;jettySize=auto;html=1;entryX=0;entryY=0.5;entryDx=0;entryDy=0;" parent="1" source="o5JYq8easLvBcQJmouKF-48" target="o5JYq8easLvBcQJmouKF-49" edge="1">
          <mxGeometry relative="1" as="geometry" />
        </mxCell>
        <mxCell id="o5JYq8easLvBcQJmouKF-45" value="&lt;font style=&quot;font-size: 13px;&quot;&gt;Yes&lt;/font&gt;" style="edgeLabel;html=1;align=center;verticalAlign=middle;resizable=0;points=[];" parent="o5JYq8easLvBcQJmouKF-44" vertex="1" connectable="0">
          <mxGeometry x="-0.3808" y="-3" relative="1" as="geometry">
            <mxPoint as="offset" />
          </mxGeometry>
        </mxCell>
        <mxCell id="o5JYq8easLvBcQJmouKF-46" style="edgeStyle=orthogonalEdgeStyle;rounded=0;orthogonalLoop=1;jettySize=auto;html=1;entryX=0.5;entryY=0;entryDx=0;entryDy=0;" parent="1" source="o5JYq8easLvBcQJmouKF-48" target="o5JYq8easLvBcQJmouKF-53" edge="1">
          <mxGeometry relative="1" as="geometry" />
        </mxCell>
        <mxCell id="o5JYq8easLvBcQJmouKF-47" value="&lt;font style=&quot;font-size: 13px;&quot;&gt;No&lt;/font&gt;" style="edgeLabel;html=1;align=center;verticalAlign=middle;resizable=0;points=[];" parent="o5JYq8easLvBcQJmouKF-46" vertex="1" connectable="0">
          <mxGeometry x="0.5675" y="-1" relative="1" as="geometry">
            <mxPoint x="21" y="3" as="offset" />
          </mxGeometry>
        </mxCell>
        <mxCell id="o5JYq8easLvBcQJmouKF-48" value="&lt;font style=&quot;font-size: 14px;&quot;&gt;Is FP&amp;nbsp;&lt;/font&gt;&lt;div&gt;&lt;span style=&quot;font-size: 14px; background-color: transparent; color: light-dark(rgb(0, 0, 0), rgb(255, 255, 255));&quot;&gt;only used as US role?&lt;/span&gt;&lt;/div&gt;" style="rhombus;whiteSpace=wrap;html=1;" parent="1" vertex="1">
          <mxGeometry x="-1455" y="1140" width="130" height="130" as="geometry" />
        </mxCell>
        <mxCell id="o5JYq8easLvBcQJmouKF-49" value="&lt;span style=&quot;font-size: 14px;&quot;&gt;Role&lt;/span&gt;" style="rounded=0;whiteSpace=wrap;html=1;" parent="1" vertex="1">
          <mxGeometry x="-1245" y="1175" width="120" height="60" as="geometry" />
        </mxCell>
        <mxCell id="o5JYq8easLvBcQJmouKF-50" style="edgeStyle=orthogonalEdgeStyle;rounded=0;orthogonalLoop=1;jettySize=auto;html=1;entryX=0;entryY=0.5;entryDx=0;entryDy=0;" parent="1" source="o5JYq8easLvBcQJmouKF-53" target="o5JYq8easLvBcQJmouKF-54" edge="1">
          <mxGeometry relative="1" as="geometry" />
        </mxCell>
        <mxCell id="o5JYq8easLvBcQJmouKF-51" value="&lt;font style=&quot;font-size: 13px;&quot;&gt;Yes&lt;/font&gt;" style="edgeLabel;html=1;align=center;verticalAlign=middle;resizable=0;points=[];" parent="o5JYq8easLvBcQJmouKF-50" vertex="1" connectable="0">
          <mxGeometry x="-0.3808" y="-3" relative="1" as="geometry">
            <mxPoint as="offset" />
          </mxGeometry>
        </mxCell>
        <mxCell id="o5JYq8easLvBcQJmouKF-52" style="edgeStyle=orthogonalEdgeStyle;rounded=0;orthogonalLoop=1;jettySize=auto;html=1;entryX=0.5;entryY=0;entryDx=0;entryDy=0;" parent="1" source="o5JYq8easLvBcQJmouKF-53" target="o5JYq8easLvBcQJmouKF-55" edge="1">
          <mxGeometry relative="1" as="geometry" />
        </mxCell>
        <mxCell id="ZEmPvThVZn5I-DIzm_DT-1" value="&lt;font style=&quot;font-size: 13px;&quot;&gt;No&lt;/font&gt;" style="edgeLabel;html=1;align=center;verticalAlign=middle;resizable=0;points=[];" parent="o5JYq8easLvBcQJmouKF-52" vertex="1" connectable="0">
          <mxGeometry x="-0.1714" y="-1" relative="1" as="geometry">
            <mxPoint y="-1" as="offset" />
          </mxGeometry>
        </mxCell>
        <mxCell id="o5JYq8easLvBcQJmouKF-53" value="&lt;font style=&quot;font-size: 14px;&quot;&gt;Is FP&amp;nbsp;&lt;/font&gt;&lt;div&gt;&lt;span style=&quot;font-size: 14px;&quot;&gt;an attribute of existing entity?&lt;/span&gt;&lt;/div&gt;" style="rhombus;whiteSpace=wrap;html=1;" parent="1" vertex="1">
          <mxGeometry x="-1462.5" y="1290" width="145" height="140" as="geometry" />
        </mxCell>
        <mxCell id="o5JYq8easLvBcQJmouKF-54" value="&lt;span style=&quot;font-size: 14px;&quot;&gt;Attribute&lt;/span&gt;" style="rounded=0;whiteSpace=wrap;html=1;" parent="1" vertex="1">
          <mxGeometry x="-1240" y="1330" width="120" height="60" as="geometry" />
        </mxCell>
        <mxCell id="o5JYq8easLvBcQJmouKF-55" value="&lt;span style=&quot;font-size: 14px;&quot;&gt;Undefined&lt;/span&gt;" style="rounded=0;whiteSpace=wrap;html=1;" parent="1" vertex="1">
          <mxGeometry x="-1450" y="1500" width="120" height="60" as="geometry" />
        </mxCell>
      </root>
    </mxGraphModel>
  </diagram>
  <diagram name="Association" id="8USUHHC6av3d-tJZmVqf">
    <mxGraphModel dx="2432" dy="487" grid="1" gridSize="10" guides="1" tooltips="1" connect="1" arrows="1" fold="1" page="1" pageScale="1" pageWidth="827" pageHeight="1169" math="0" shadow="0">
      <root>
        <mxCell id="ZMFSxGAkFtUno3nTPKd9-0" />
        <mxCell id="ZMFSxGAkFtUno3nTPKd9-1" parent="ZMFSxGAkFtUno3nTPKd9-0" />
        <mxCell id="ZMFSxGAkFtUno3nTPKd9-4" value="No" style="edgeStyle=orthogonalEdgeStyle;rounded=0;orthogonalLoop=1;jettySize=auto;html=1;entryX=0;entryY=0.5;entryDx=0;entryDy=0;fontSize=13;" parent="ZMFSxGAkFtUno3nTPKd9-1" source="ZMFSxGAkFtUno3nTPKd9-5" target="ZMFSxGAkFtUno3nTPKd9-15" edge="1">
          <mxGeometry relative="1" as="geometry">
            <mxPoint as="offset" />
          </mxGeometry>
        </mxCell>
        <mxCell id="RBTzvz6qdxSXNllUdwwq-1" style="edgeStyle=orthogonalEdgeStyle;rounded=0;orthogonalLoop=1;jettySize=auto;html=1;entryX=0.5;entryY=0;entryDx=0;entryDy=0;" parent="ZMFSxGAkFtUno3nTPKd9-1" source="ZMFSxGAkFtUno3nTPKd9-5" target="ZMFSxGAkFtUno3nTPKd9-20" edge="1">
          <mxGeometry relative="1" as="geometry" />
        </mxCell>
        <mxCell id="RBTzvz6qdxSXNllUdwwq-12" value="Yes" style="edgeLabel;html=1;align=center;verticalAlign=middle;resizable=0;points=[];fontSize=14;" parent="RBTzvz6qdxSXNllUdwwq-1" vertex="1" connectable="0">
          <mxGeometry x="0.1165" y="-2" relative="1" as="geometry">
            <mxPoint y="1" as="offset" />
          </mxGeometry>
        </mxCell>
        <mxCell id="ZMFSxGAkFtUno3nTPKd9-5" value="&lt;div&gt;&lt;span style=&quot;font-size: 14px;&quot;&gt;Are both classes in the assciation mentioned in the set of US?&lt;/span&gt;&lt;/div&gt;" style="rhombus;whiteSpace=wrap;html=1;" parent="ZMFSxGAkFtUno3nTPKd9-1" vertex="1">
          <mxGeometry x="-1510" y="40" width="190" height="180" as="geometry" />
        </mxCell>
        <mxCell id="ZMFSxGAkFtUno3nTPKd9-15" value="&lt;font style=&quot;font-size: 14px;&quot;&gt;Irrelevant&lt;/font&gt;" style="rounded=0;whiteSpace=wrap;html=1;" parent="ZMFSxGAkFtUno3nTPKd9-1" vertex="1">
          <mxGeometry x="-1230" y="100" width="120" height="60" as="geometry" />
        </mxCell>
        <mxCell id="ZMFSxGAkFtUno3nTPKd9-16" style="edgeStyle=orthogonalEdgeStyle;rounded=0;orthogonalLoop=1;jettySize=auto;html=1;entryX=0;entryY=0.5;entryDx=0;entryDy=0;" parent="ZMFSxGAkFtUno3nTPKd9-1" source="ZMFSxGAkFtUno3nTPKd9-20" target="ZMFSxGAkFtUno3nTPKd9-25" edge="1">
          <mxGeometry relative="1" as="geometry" />
        </mxCell>
        <mxCell id="ZMFSxGAkFtUno3nTPKd9-17" value="No" style="edgeLabel;html=1;align=center;verticalAlign=middle;resizable=0;points=[];fontSize=14;" parent="ZMFSxGAkFtUno3nTPKd9-16" vertex="1" connectable="0">
          <mxGeometry x="-0.3912" y="5" relative="1" as="geometry">
            <mxPoint x="8" y="10" as="offset" />
          </mxGeometry>
        </mxCell>
        <mxCell id="RBTzvz6qdxSXNllUdwwq-13" style="edgeStyle=orthogonalEdgeStyle;rounded=0;orthogonalLoop=1;jettySize=auto;html=1;entryX=0.5;entryY=0;entryDx=0;entryDy=0;" parent="ZMFSxGAkFtUno3nTPKd9-1" source="ZMFSxGAkFtUno3nTPKd9-20" target="RBTzvz6qdxSXNllUdwwq-11" edge="1">
          <mxGeometry relative="1" as="geometry" />
        </mxCell>
        <mxCell id="RBTzvz6qdxSXNllUdwwq-14" value="Yes" style="edgeLabel;html=1;align=center;verticalAlign=middle;resizable=0;points=[];fontSize=14;" parent="RBTzvz6qdxSXNllUdwwq-13" vertex="1" connectable="0">
          <mxGeometry x="0.0945" y="-1" relative="1" as="geometry">
            <mxPoint as="offset" />
          </mxGeometry>
        </mxCell>
        <mxCell id="ZMFSxGAkFtUno3nTPKd9-20" value="&lt;span style=&quot;font-size: 14px;&quot;&gt;Are both classes in the association mentioned in the gold standard?&lt;/span&gt;" style="rhombus;whiteSpace=wrap;html=1;" parent="ZMFSxGAkFtUno3nTPKd9-1" vertex="1">
          <mxGeometry x="-1515" y="285" width="200" height="190" as="geometry" />
        </mxCell>
        <mxCell id="ZMFSxGAkFtUno3nTPKd9-21" style="edgeStyle=orthogonalEdgeStyle;rounded=0;orthogonalLoop=1;jettySize=auto;html=1;entryX=0.5;entryY=1;entryDx=0;entryDy=0;" parent="ZMFSxGAkFtUno3nTPKd9-1" source="ZMFSxGAkFtUno3nTPKd9-25" target="ZMFSxGAkFtUno3nTPKd9-15" edge="1">
          <mxGeometry relative="1" as="geometry" />
        </mxCell>
        <mxCell id="ZMFSxGAkFtUno3nTPKd9-22" value="No" style="edgeLabel;html=1;align=center;verticalAlign=middle;resizable=0;points=[];fontSize=14;" parent="ZMFSxGAkFtUno3nTPKd9-21" vertex="1" connectable="0">
          <mxGeometry x="-0.8304" y="3" relative="1" as="geometry">
            <mxPoint as="offset" />
          </mxGeometry>
        </mxCell>
        <mxCell id="ZMFSxGAkFtUno3nTPKd9-23" style="edgeStyle=orthogonalEdgeStyle;rounded=0;orthogonalLoop=1;jettySize=auto;html=1;entryX=0;entryY=0.5;entryDx=0;entryDy=0;" parent="ZMFSxGAkFtUno3nTPKd9-1" source="ZMFSxGAkFtUno3nTPKd9-25" target="ZMFSxGAkFtUno3nTPKd9-26" edge="1">
          <mxGeometry relative="1" as="geometry" />
        </mxCell>
        <mxCell id="ZMFSxGAkFtUno3nTPKd9-24" value="Yes" style="edgeLabel;html=1;align=center;verticalAlign=middle;resizable=0;points=[];fontSize=14;" parent="ZMFSxGAkFtUno3nTPKd9-23" vertex="1" connectable="0">
          <mxGeometry x="-0.2092" y="2" relative="1" as="geometry">
            <mxPoint as="offset" />
          </mxGeometry>
        </mxCell>
        <mxCell id="ZMFSxGAkFtUno3nTPKd9-25" value="&lt;span style=&quot;font-size: 14px;&quot;&gt;Does the association &lt;br&gt;involve implementation construct?&lt;/span&gt;" style="rhombus;whiteSpace=wrap;html=1;" parent="ZMFSxGAkFtUno3nTPKd9-1" vertex="1">
          <mxGeometry x="-1265" y="285" width="190" height="190" as="geometry" />
        </mxCell>
        <mxCell id="ZMFSxGAkFtUno3nTPKd9-26" value="&lt;font style=&quot;font-size: 14px;&quot;&gt;Implementation&lt;/font&gt;" style="rounded=0;whiteSpace=wrap;html=1;" parent="ZMFSxGAkFtUno3nTPKd9-1" vertex="1">
          <mxGeometry x="-990" y="355" width="120" height="60" as="geometry" />
        </mxCell>
        <mxCell id="RBTzvz6qdxSXNllUdwwq-16" style="edgeStyle=orthogonalEdgeStyle;rounded=0;orthogonalLoop=1;jettySize=auto;html=1;entryX=0.5;entryY=0;entryDx=0;entryDy=0;" parent="ZMFSxGAkFtUno3nTPKd9-1" source="RBTzvz6qdxSXNllUdwwq-11" target="RBTzvz6qdxSXNllUdwwq-15" edge="1">
          <mxGeometry relative="1" as="geometry" />
        </mxCell>
        <mxCell id="RBTzvz6qdxSXNllUdwwq-17" value="&lt;font style=&quot;font-size: 14px;&quot;&gt;Yes&lt;/font&gt;" style="edgeLabel;html=1;align=center;verticalAlign=middle;resizable=0;points=[];" parent="RBTzvz6qdxSXNllUdwwq-16" vertex="1" connectable="0">
          <mxGeometry x="0.019" y="-4" relative="1" as="geometry">
            <mxPoint y="1" as="offset" />
          </mxGeometry>
        </mxCell>
        <mxCell id="RBTzvz6qdxSXNllUdwwq-20" style="edgeStyle=orthogonalEdgeStyle;rounded=0;orthogonalLoop=1;jettySize=auto;html=1;entryX=0;entryY=0.5;entryDx=0;entryDy=0;" parent="ZMFSxGAkFtUno3nTPKd9-1" source="RBTzvz6qdxSXNllUdwwq-11" target="RBTzvz6qdxSXNllUdwwq-19" edge="1">
          <mxGeometry relative="1" as="geometry" />
        </mxCell>
        <mxCell id="RBTzvz6qdxSXNllUdwwq-21" value="&lt;font style=&quot;font-size: 14px;&quot;&gt;No&lt;/font&gt;" style="edgeLabel;html=1;align=center;verticalAlign=middle;resizable=0;points=[];" parent="RBTzvz6qdxSXNllUdwwq-20" vertex="1" connectable="0">
          <mxGeometry x="-0.3445" y="1" relative="1" as="geometry">
            <mxPoint x="-1" as="offset" />
          </mxGeometry>
        </mxCell>
        <mxCell id="RBTzvz6qdxSXNllUdwwq-11" value="&lt;span style=&quot;font-size: 14px;&quot;&gt;Can the association&lt;/span&gt;&lt;div&gt;&lt;span style=&quot;font-size: 14px;&quot;&gt;&amp;nbsp;be dervied from other&amp;nbsp;&lt;/span&gt;&lt;/div&gt;&lt;div&gt;&lt;span style=&quot;font-size: 14px;&quot;&gt;existing association?&lt;/span&gt;&lt;/div&gt;" style="rhombus;whiteSpace=wrap;html=1;" parent="ZMFSxGAkFtUno3nTPKd9-1" vertex="1">
          <mxGeometry x="-1515" y="540" width="200" height="190" as="geometry" />
        </mxCell>
        <mxCell id="RBTzvz6qdxSXNllUdwwq-15" value="&lt;font style=&quot;font-size: 14px;&quot;&gt;Redundant/ Derived&lt;/font&gt;" style="rounded=0;whiteSpace=wrap;html=1;" parent="ZMFSxGAkFtUno3nTPKd9-1" vertex="1">
          <mxGeometry x="-1475" y="790" width="120" height="60" as="geometry" />
        </mxCell>
        <mxCell id="RBTzvz6qdxSXNllUdwwq-19" value="&lt;font style=&quot;font-size: 14px;&quot;&gt;Irrelevant&lt;/font&gt;" style="rounded=0;whiteSpace=wrap;html=1;" parent="ZMFSxGAkFtUno3nTPKd9-1" vertex="1">
          <mxGeometry x="-1230" y="605" width="120" height="60" as="geometry" />
        </mxCell>
      </root>
    </mxGraphModel>
  </diagram>
</mxfile>
